<svg id="visual" viewBox="0 0 900 200" width="900" height="200" xmlns="http://www.w3.org/2000/svg" xmlns:xlink="http://www.w3.org/1999/xlink" version="1.1"><path d="M0 39L25 42.5C50 46 100 53 150 58.8C200 64.7 250 69.3 300 67C350 64.7 400 55.3 450 54.7C500 54 550 62 600 67.7C650 73.3 700 76.7 750 75.3C800 74 850 68 875 65L900 62L900 201L875 201C850 201 800 201 750 201C700 201 650 201 600 201C550 201 500 201 450 201C400 201 350 201 300 201C250 201 200 201 150 201C100 201 50 201 25 201L0 201Z" fill="#fa7268"></path><path d="M0 129L25 123.2C50 117.3 100 105.7 150 96C200 86.3 250 78.7 300 82C350 85.3 400 99.7 450 108.8C500 118 550 122 600 114.5C650 107 700 88 750 85.2C800 82.3 850 95.7 875 102.3L900 109L900 201L875 201C850 201 800 201 750 201C700 201 650 201 600 201C550 201 500 201 450 201C400 201 350 201 300 201C250 201 200 201 150 201C100 201 50 201 25 201L0 201Z" fill="#ff8458"></path><path d="M0 103L25 105C50 107 100 111 150 119C200 127 250 139 300 140.7C350 142.3 400 133.7 450 125.8C500 118 550 111 600 108.5C650 106 700 108 750 115C800 122 850 134 875 140L900 146L900 201L875 201C850 201 800 201 750 201C700 201 650 201 600 201C550 201 500 201 450 201C400 201 350 201 300 201C250 201 200 201 150 201C100 201 50 201 25 201L0 201Z" fill="#ff9949"></path><path d="M0 151L25 155.7C50 160.3 100 169.7 150 168.7C200 167.7 250 156.3 300 149.7C350 143 400 141 450 144.7C500 148.3 550 157.7 600 161.5C650 165.3 700 163.7 750 165.8C800 168 850 174 875 177L900 180L900 201L875 201C850 201 800 201 750 201C700 201 650 201 600 201C550 201 500 201 450 201C400 201 350 201 300 201C250 201 200 201 150 201C100 201 50 201 25 201L0 201Z" fill="#fcaf3c"></path></svg>