<svg id="visual" viewBox="0 0 900 600" width="900" height="600" xmlns="http://www.w3.org/2000/svg" xmlns:xlink="http://www.w3.org/1999/xlink" version="1.1"><path d="M0 377L25 383.8C50 390.7 100 404.3 150 407C200 409.7 250 401.3 300 398.8C350 396.3 400 399.7 450 400.3C500 401 550 399 600 403.8C650 408.7 700 420.3 750 419.2C800 418 850 404 875 397L900 390L900 601L875 601C850 601 800 601 750 601C700 601 650 601 600 601C550 601 500 601 450 601C400 601 350 601 300 601C250 601 200 601 150 601C100 601 50 601 25 601L0 601Z" fill="#fa7268"></path><path d="M0 467L25 460.8C50 454.7 100 442.3 150 439C200 435.7 250 441.3 300 443.8C350 446.3 400 445.7 450 445.2C500 444.7 550 444.3 600 449.7C650 455 700 466 750 466C800 466 850 455 875 449.5L900 444L900 601L875 601C850 601 800 601 750 601C700 601 650 601 600 601C550 601 500 601 450 601C400 601 350 601 300 601C250 601 200 601 150 601C100 601 50 601 25 601L0 601Z" fill="#ff8458"></path><path d="M0 500L25 500.8C50 501.7 100 503.3 150 506C200 508.7 250 512.3 300 510.3C350 508.3 400 500.7 450 491.8C500 483 550 473 600 478.2C650 483.3 700 503.7 750 511.2C800 518.7 850 513.3 875 510.7L900 508L900 601L875 601C850 601 800 601 750 601C700 601 650 601 600 601C550 601 500 601 450 601C400 601 350 601 300 601C250 601 200 601 150 601C100 601 50 601 25 601L0 601Z" fill="#ff9949"></path><path d="M0 515L25 517.2C50 519.3 100 523.7 150 532.5C200 541.3 250 554.7 300 552.8C350 551 400 534 450 531.5C500 529 550 541 600 546.5C650 552 700 551 750 548.2C800 545.3 850 540.7 875 538.3L900 536L900 601L875 601C850 601 800 601 750 601C700 601 650 601 600 601C550 601 500 601 450 601C400 601 350 601 300 601C250 601 200 601 150 601C100 601 50 601 25 601L0 601Z" fill="#fcaf3c"></path></svg>