<svg id="visual" viewBox="0 0 900 200" width="900" height="200" xmlns="http://www.w3.org/2000/svg" xmlns:xlink="http://www.w3.org/1999/xlink" version="1.1"><path d="M0 167L25 168.5C50 170 100 173 150 177C200 181 250 186 300 185.5C350 185 400 179 450 173.8C500 168.7 550 164.3 600 165.5C650 166.7 700 173.3 750 174.7C800 176 850 172 875 170L900 168L900 0L875 0C850 0 800 0 750 0C700 0 650 0 600 0C550 0 500 0 450 0C400 0 350 0 300 0C250 0 200 0 150 0C100 0 50 0 25 0L0 0Z" fill="#fa7268"></path><path d="M0 114L25 119.3C50 124.7 100 135.3 150 132.5C200 129.7 250 113.3 300 108.2C350 103 400 109 450 116.8C500 124.7 550 134.3 600 139.5C650 144.7 700 145.3 750 141.8C800 138.3 850 130.7 875 126.8L900 123L900 0L875 0C850 0 800 0 750 0C700 0 650 0 600 0C550 0 500 0 450 0C400 0 350 0 300 0C250 0 200 0 150 0C100 0 50 0 25 0L0 0Z" fill="#eb5967"></path><path d="M0 57L25 61C50 65 100 73 150 78.2C200 83.3 250 85.7 300 81.8C350 78 400 68 450 66.5C500 65 550 72 600 77.3C650 82.7 700 86.3 750 90.2C800 94 850 98 875 100L900 102L900 0L875 0C850 0 800 0 750 0C700 0 650 0 600 0C550 0 500 0 450 0C400 0 350 0 300 0C250 0 200 0 150 0C100 0 50 0 25 0L0 0Z" fill="#da3f67"></path><path d="M0 31L25 34.7C50 38.3 100 45.7 150 44.2C200 42.7 250 32.3 300 29.5C350 26.7 400 31.3 450 36.5C500 41.7 550 47.3 600 51.3C650 55.3 700 57.7 750 54.7C800 51.7 850 43.3 875 39.2L900 35L900 0L875 0C850 0 800 0 750 0C700 0 650 0 600 0C550 0 500 0 450 0C400 0 350 0 300 0C250 0 200 0 150 0C100 0 50 0 25 0L0 0Z" fill="#c62368"></path></svg>